<?xml version="1.0" encoding="utf-8"?>
<!-- Generator: Adobe Illustrator 16.0.0, SVG Export Plug-In . SVG Version: 6.00 Build 0)  -->
<!DOCTYPE svg PUBLIC "-//W3C//DTD SVG 1.1//EN" "http://www.w3.org/Graphics/SVG/1.1/DTD/svg11.dtd">
<svg version="1.1" id="Layer_1" xmlns="http://www.w3.org/2000/svg" xmlns:xlink="http://www.w3.org/1999/xlink" x="0px" y="0px"
	 width="446px" height="130px" viewBox="0 0 446 130" enable-background="new 0 0 446 130" xml:space="preserve">
<linearGradient id="SVGID_1_" gradientUnits="userSpaceOnUse" x1="0.9868" y1="96.7852" x2="443.7255" y2="96.7852">
	<stop  offset="0" style="stop-color:#F9ED32"/>
	<stop  offset="0.5376" style="stop-color:#ED1C24"/>
	<stop  offset="1" style="stop-color:#92278F"/>
</linearGradient>
<path fill-rule="evenodd" clip-rule="evenodd" fill="url(#SVGID_1_)" d="M79.286,96.827c0.73-0.301,1.443-0.656,2.13-1.053
	c-1.802,0.676-3.659,1.223-5.419,2.022C77.118,97.548,78.227,97.257,79.286,96.827z"/>
<linearGradient id="SVGID_2_" gradientUnits="userSpaceOnUse" x1="443.666" y1="65" x2="-10.4124" y2="65">
	<stop  offset="0" style="stop-color:#F05767"/>
	<stop  offset="1" style="stop-color:#F6871F"/>
</linearGradient>
<path fill-rule="evenodd" clip-rule="evenodd" fill="url(#SVGID_2_)" d="M432.361,80.375c-0.016-0.171-0.395-0.448-0.589-0.433
	c-0.544,0.037-1.097,0.157-1.618,0.328c-0.373,0.119-0.679,0.463-1.052,0.538c-1.06,0.208-2.149,0.264-3.111,0.835
	c-0.143,0.081-0.35,0.052-0.521,0.081c-0.808,0.143-1.605,0.255-2.396,0.433c-0.686,0.165-1.335,0.493-2.028,0.59
	c-1.007,0.148-2.036,0.126-3.051,0.217c-1.201,0.112-2.454-0.13-3.581,0.537c-0.112,0.066-0.291,0.052-0.448,0.055
	c-0.835,0.024-1.678,0.049-2.52,0.063c-2.739,0.057-5.484,0.105-8.222,0.158c-0.149,0.008-0.313-0.005-0.456,0.047
	c-2.268,0.773-4.677,0.205-7.027,0.869c-2.006,0.57-4.252,0.299-6.394,0.427c-0.5,0.032-0.999,0.283-1.491,0.26
	c-0.725-0.028-1.44-0.275-2.172-0.321c-1.737-0.096-3.476-0.17-5.219-0.2c-4.763-0.067-9.528-0.079-14.294-0.18
	c-1.106-0.021-2.204-0.283-3.295-0.462c-0.654-0.104-1.3-0.232-1.942-0.388c-0.706-0.179-1.39-0.439-2.104-0.591
	c-1.649-0.343-3.283-0.267-4.953-0.007c-2.493,0.396-5.007,0.358-7.506-0.037c-1.081-0.163-2.163-0.351-3.23-0.604
	c-0.427-0.105-0.783-0.541-1.209-0.611c-2.003-0.321-4.028-0.38-6.035-0.843c-1.556-0.359-3.089-0.747-4.62-1.18
	c-0.557-0.157-1.153-0.168-1.735-0.194c-1-0.045-2.117,0.225-2.97-0.141c-1.207-0.516-2.543-0.343-3.711-0.981
	c-0.634-0.347-1.474-0.306-2.212-0.474c-1.697-0.381-3.405-0.776-4.965-1.541c-1.056-0.519-2.088-0.764-3.249-0.719
	c-0.641,0.021-1.338,0.086-1.806-0.591c-0.096-0.138-0.421-0.134-0.644-0.164c-0.355-0.04-0.713-0.036-1.067-0.088
	c-1.861-0.291-3.607-1.09-5.506-1.209c-0.235-0.016-0.45-0.229-0.697-0.307c-1.171-0.373-2.338-0.801-3.536-1.089
	c-1.045-0.246-2.125-0.321-3.187-0.485c-0.191-0.029-0.38-0.134-0.566-0.212c-0.502-0.201-0.992-0.505-1.513-0.593
	c-1.075-0.183-2.184-0.172-3.242-0.399c-1.056-0.228-2.089-0.604-3.092-1.012c-1.143-0.454-2.23-1.029-3.358-1.528
	c-1.073-0.479-1.946-1.443-3.26-1.365c-0.07,0.008-0.165-0.026-0.217-0.071c-0.699-0.607-1.559-0.563-2.401-0.578
	c-0.566-0.007-1.071-0.037-1.561-0.462c-0.398-0.344-0.999-0.534-1.535-0.615c-1.029-0.161-2.12-0.056-3.11-0.325
	c-1.358-0.365-2.816-0.455-4.029-1.306c-0.238-0.164-0.582-0.18-0.88-0.25c-0.813-0.186-1.649-0.305-2.443-0.563
	c-1.519-0.492-3.011-1.082-4.528-1.592c-0.335-0.116-0.806,0.03-1.063-0.157c-0.668-0.489-1.447-0.597-2.19-0.858
	c-1.45-0.522-2.868-1.13-4.3-1.705c-0.12-0.048-0.224-0.119-0.345-0.168c-1.319-0.562-2.64-1.123-3.965-1.674
	c-0.111-0.048-0.255-0.008-0.384-0.03c-0.924-0.171-1.895-0.231-2.761-0.556c-0.908-0.347-1.715-0.921-2.774-0.713
	c-0.168,0.034-0.392-0.189-0.589-0.294c-0.176-0.093-0.344-0.216-0.53-0.272c-0.566-0.18-1.141-0.333-1.715-0.5
	c-1.754-0.515-3.2-1.574-4.686-2.589c-0.813-0.556-1.656-1.081-2.529-1.548c-0.559-0.294-1.26-0.339-1.774-0.679
	c-0.926-0.608-1.862-1.033-2.985-1.026c-0.215,0-0.454-0.085-0.652-0.187c-1.019-0.514-2.025-1.052-3.039-1.57
	c-0.157-0.078-0.34-0.123-0.516-0.139c-2.021-0.186-3.942-0.723-5.781-1.584c-0.56-0.261-1.179-0.497-1.783-0.533
	c-0.574-0.033-1.111,0.044-1.562-0.411c-0.131-0.13-0.374-0.145-0.564-0.212c-0.544-0.189-1.093-0.373-1.634-0.571
	c-0.451-0.164-0.895-0.35-1.343-0.507c-1.204-0.413-2.432-0.768-3.61-1.238c-1.029-0.409-2.003-0.969-3.021-1.421
	c-1.148-0.508-2.425-0.81-3.454-1.488c-1.73-1.134-3.782-1.478-5.543-2.633c-1.805-1.18-3.663-2.417-5.789-3.133
	c-1.115-0.377-2.055-1.171-3.282-1.462c-1.224-0.283-2.335-1.029-3.491-1.574c-1.417-0.671-2.778-1.515-4.26-1.985
	c-2.028-0.649-3.894-1.742-6.005-2.155c-0.451-0.09-0.881-0.399-1.269-0.683c-0.769-0.56-1.43-1.302-2.256-1.73
	c-1.385-0.72-2.847-1.295-4.305-1.854c-1.779-0.679-3.683-0.97-5.383-1.951c-0.82-0.474-1.901-0.485-2.872-0.679
	c-0.992-0.198-1.999-0.333-2.984-0.571c-0.425-0.101-0.79-0.455-1.216-0.596c-2.089-0.694-4.178-1.387-6.281-2.025
	c-1.298-0.392-2.432-1.265-3.856-1.294c-0.206-0.008-0.396-0.217-0.604-0.302c-0.611-0.254-1.216-0.541-1.843-0.728
	c-0.806-0.235-1.66-0.324-2.454-0.589c-0.862-0.283-1.701-0.657-2.514-1.067c-0.996-0.5-1.971-1.056-2.932-1.622
	c-1.119-0.661-2.253-1.258-3.574-1.384c-0.381-0.037-0.769-0.105-1.138-0.202c-1.265-0.354-2.525-0.728-3.794-1.098
	c-0.98-0.283-1.965-0.573-2.946-0.865c-1.253-0.362-2.592-0.552-3.722-1.141c-0.971-0.508-1.94-0.59-2.937-0.686
	c-1.864-0.18-3.711-0.389-5.449-1.168c-0.433-0.199-0.939-0.25-1.417-0.339c-1.693-0.329-3.384-0.661-5.081-0.962
	c-1.253-0.224-2.506-0.478-3.771-0.583c-3.237-0.287-6.479-0.529-9.728-0.731c-1.885-0.112-3.783-0.239-5.666-0.149
	c-3.066,0.146-6.125,0.426-9.184,0.724c-1.343,0.13-2.782-0.045-3.924,1.022c-0.351,0.328-0.918,0.417-1.365,0.648
	c-0.455,0.228-0.896,0.478-1.328,0.747c-0.642,0.395-1.231,0.913-1.913,1.208c-0.821,0.351-1.806,0.313-2.41,1.149
	c-0.107,0.152-0.422,0.149-0.631,0.238c-0.357,0.149-0.79,0.239-1.036,0.503c-0.563,0.601-1.127,1.175-1.933,1.434
	c-0.388,0.123-0.873,0.133-1.148,0.375c-0.933,0.828-1.824,1.708-2.656,2.633c-0.678,0.747-1.241,1.604-1.887,2.388
	c-0.447,0.541-1.022,0.992-1.402,1.571c-0.985,1.48-1.918,3.002-2.813,4.539c-0.257,0.447-0.321,1.007-0.455,1.518
	c-0.108,0.422-0.104,0.888-0.299,1.265c-0.313,0.626-0.687,1.25-1.149,1.775c-0.305,0.351-0.782,0.634-1.23,0.739
	c-0.369,0.088-0.768-0.112-0.857-0.664c-0.112-0.757-0.511-1.66,0.28-2.119c0.887-0.514,1.163-1.26,1.33-2.11
	c0.135-0.676,0.396-1.194,1.008-1.552c0.194-0.111,0.426-0.388,0.418-0.582c-0.033-0.873,0.336-1.462,0.91-2.131
	c1.044-1.211,1.851-2.637,2.809-3.934c0.287-0.381,0.791-0.594,1.149-0.933c0.778-0.731,1.421-1.687,2.315-2.193
	c0.94-0.53,1.717-1.171,2.466-1.895c0.392-0.374,0.891-0.813,0.548-1.365c-0.347-0.552-0.969-0.47-1.528-0.202
	c-0.115,0.056-0.228,0.126-0.351,0.165c-0.575,0.183-1.146,0.41-1.735,0.521c-0.988,0.187-2.032,0.276-2.727,1.089
	c-0.611,0.716-1.413,0.87-2.238,1.038c-0.328,0.067-0.686,0.048-0.984,0.179c-0.47,0.209-0.936,0.466-1.35,0.776
	c-0.907,0.683-1.75,1.458-2.687,2.096c-0.365,0.254-1.021,0.101-1.372,0.366c-1.515,1.156-2.966,2.387-4.432,3.603
	c-0.388,0.321-0.687,0.776-1.119,1c-1.794,0.939-3.42,2.028-4.326,3.938c-0.119,0.247-0.354,0.433-0.538,0.634
	c-0.786,0.877-1.655,1.686-2.327,2.637c-0.455,0.638-0.634,1.473-0.925,2.226c-0.238,0.594-0.448,1.195-0.687,1.784
	c-0.433,1.063-0.861,2.125-1.323,3.177c-0.546,1.231-1.213,2.406-1.288,3.805c-0.019,0.361-0.23,0.828-0.511,1.029
	c-0.569,0.41-0.794,0.917-0.794,1.57c-0.012,1.458-0.03,2.914-0.004,4.368c0.03,1.715,0.082,3.432,0.176,5.147
	c0.036,0.734-0.033,1.634,0.354,2.148c0.473,0.634,0.548,1.22,0.548,1.906c0,0.742-0.045,1.492,0.008,2.229
	c0.045,0.594,0.209,1.176,0.324,1.795c0.369-0.093,0.585-0.145,0.91-0.228c0.048,0.366,0.131,0.683,0.126,0.996
	c-0.01,0.995,0.312,1.797,1.206,2.328c0.216,0.123,0.457,0.29,0.552,0.503c0.522,1.161,1.045,2.323,1.478,3.521
	c0.097,0.287-0.049,0.802-0.27,1.01c-0.152,0.142-0.712,0.044-0.947-0.134c-0.418-0.321-0.772-0.75-1.074-1.186
	c-0.918-1.343-1.797-2.716-2.7-4.066c-0.452-0.679-1.067-1.291-1.335-2.034c-0.255-0.704-0.575-1.279-1.082-1.808
	c-0.307-0.317-0.5-0.754-0.721-1.149c-0.287-0.522-0.552-1.059-0.816-1.597c-0.313-0.622-0.735-1.224-0.895-1.887
	c-0.266-1.112-0.25-2.276-0.926-3.297c-0.298-0.452-0.418-1.044-0.553-1.589c-0.107-0.463-0.118-0.947-0.179-1.425l0.209-0.037
	c0.172,0.234,0.34,0.47,0.512,0.708c0.078-0.016,0.159-0.022,0.242-0.038c0-0.619,0.029-1.234-0.008-1.851
	c-0.052-0.869-0.176-1.73-0.212-2.603c-0.012-0.245,0.101-0.604,0.286-0.73c0.669-0.47,0.687-1.142,0.403-1.708
	c-0.44-0.873-0.216-1.537,0.258-2.275c0.265-0.41,0.462-0.955,0.443-1.432c-0.044-1.474-0.261-2.947-0.306-4.42
	c-0.029-0.81,0.149-1.574,0.858-2.193c0.544-0.467,1.142-1.026,0.978-1.948c-0.199-1.104,0.29-1.913,1.199-2.547
	c0.285-0.201,0.612-0.619,0.591-0.917c-0.056-0.918,0.421-1.484,1.022-2.037c0.245-0.22,0.589-0.504,0.599-0.772
	c0.02-0.541-0.078-1.123-0.286-1.623c-0.074-0.193-0.671-0.38-0.888-0.275c-0.844,0.41-1.791,0.794-2.398,1.462
	c-1.302,1.433-2.45,3.014-3.6,4.576c-1.354,1.847-2.637,3.75-3.961,5.614c-0.403,0.568-0.388,1.098,0.029,1.627
	c0.25,0.32,0.142,0.496-0.134,0.761c-0.247,0.23-0.403,0.596-0.485,0.931c-0.111,0.463-0.074,0.963-0.179,1.433
	c-0.171,0.731-0.43,1.433-0.604,2.164c-0.402,1.679-0.675,3.402-1.216,5.036c-0.22,0.679-0.47,1.305-0.508,2.033
	c-0.022,0.51-0.261,1.01-0.417,1.51c-0.098,0.32-0.262,0.626-0.321,0.951c-0.056,0.325-0.003,0.668-0.022,0.996
	c-0.197,3.328-0.426,6.647-0.574,9.967c-0.029,0.634,0.225,1.283,0.388,1.913c0.187,0.717,0.44,1.415,0.616,2.131
	c0.049,0.194-0.116,0.424-0.139,0.641c-0.033,0.269-0.078,0.552-0.019,0.806c0.142,0.604,0.348,1.193,0.515,1.791
	c0.153,0.537,0.272,1.082,0.429,1.614c0.075,0.269,0.247,0.516,0.292,0.788c0.32,1.67,0.597,3.345,0.937,5.008
	c0.152,0.742,0.48,1.451,0.637,2.19c0.336,1.552,0.604,3.11,0.921,4.662c0.19,0.944,0.661,1.843,0.348,2.854
	c-0.053,0.152-0.007,0.384,0.078,0.518c0.437,0.682,0.862,1.381,1.368,2.007c0.456,0.567,1.026,1.041,1.516,1.582
	c0.648,0.716,1.186,1.551,1.909,2.178c1.466,1.27,2.306,2.983,3.417,4.502c0.119,0.168,0.022,0.63-0.135,0.806
	c-0.186,0.205-0.671,0.433-0.82,0.333c-0.806-0.53-1.578-1.115-2.298-1.761c-0.478-0.434-0.85-0.978-1.269-1.479
	c-0.313-0.373-0.604-0.771-0.925-1.145c-0.537-0.615-1.036-1.239-1.238-2.063c-0.04-0.183-0.339-0.294-0.492-0.463
	c-0.347-0.38-0.694-0.768-1.007-1.178c-0.213-0.276-0.328-0.635-0.545-0.904c-0.439-0.54-0.991-1.002-1.38-1.577
	c-1.056-1.562-2.089-3.144-3.059-4.763c-0.529-0.896-0.918-1.88-1.351-2.831c-0.234-0.512-0.402-1.056-0.648-1.559
	c-0.231-0.474-0.541-0.914-0.806-1.377c-0.225-0.387-0.485-0.765-0.627-1.182c-0.254-0.75-0.403-1.534-0.649-2.28
	c-0.432-1.305-0.988-2.569-1.347-3.89c-0.343-1.256-0.488-2.563-0.75-3.838c-0.066-0.343-0.249-0.664-0.35-1.004
	c-0.171-0.556-0.426-1.107-0.447-1.675c-0.061-1.559,0.007-3.118-0.037-4.677c-0.016-0.612-0.161-1.219-0.303-1.813
	c-0.116-0.507-0.463-0.806-1.012-0.746c-0.566,0.06-0.656,0.474-0.671,0.947c-0.022,0.742-0.052,1.484-0.107,2.223
	c-0.109,1.503-0.254,3.002-0.344,4.505c-0.026,0.482,0.086,0.971,0.108,1.456c0.122,2.559,0.231,5.117,0.369,7.676
	c0.022,0.425,0.171,0.851,0.287,1.268c0.388,1.426,0.899,2.824,0.783,4.357c-0.053,0.701,0.09,1.432,0.217,2.134
	c0.122,0.7,0.455,1.379,0.484,2.081c0.041,0.843,0.463,1.41,0.926,2.037c0.343,0.47,0.663,1.081,0.686,1.637
	c0.023,0.668,0.187,1.152,0.716,1.5c0.571,0.376,0.754,0.891,0.829,1.555c0.075,0.59,0.265,1.22,0.586,1.713
	c1.006,1.528,2.113,2.994,3.151,4.506c0.269,0.392,0.529,0.847,0.626,1.309c0.179,0.834,0.635,1.352,1.396,1.701
	c0.768,0.35,1.261,0.946,1.619,1.752c0.462,1.015,1.044,1.993,1.693,2.902c0.447,0.631,1.23,1.029,1.626,1.679
	c0.857,1.413,2.216,2.321,3.282,3.521c0.521,0.574,1.216,1.007,1.857,1.47c0.962,0.704,1.929,1.401,2.925,2.059
	c0.918,0.604,1.892,1.119,2.798,1.731c2.215,1.511,4.4,3.055,6.602,4.571c0.478,0.332,0.97,0.619,1.466,0.912
	c0.891,0.521,1.824,0.978,2.689,1.528c1.884,0.288,3.535,1.107,5.096,2.19c0.544,0.171,1.085,0.334,1.633,0.494
	c3.589,1.041,7.229,1.688,10.996,1.329c1.116-0.112,2.238-0.18,3.357-0.202c1.917-0.052,3.842,0.042,5.752-0.103
	c1.723-0.128,3.438-0.464,5.147-0.755c1.003-0.18,1.984-0.471,2.979-0.694c1.414-0.313,2.847-0.477,4.156-1.252
	c1.421-0.845,2.973-1.467,4.494-2.135c0.269-0.111,0.813-0.073,0.955,0.107c0.217,0.281,0.35,0.811,0.234,1.116
	c-0.294,0.787-0.675,1.567-1.159,2.247c-0.978,1.372-2.019,2.714-3.264,3.863c-0.668,0.626-1.284,1.32-2.025,1.842
	c-0.728,0.509-1.567,0.87-2.396,1.204c-0.693,0.29-1.432,0.509-2.171,0.646c-0.701,0.138-1.433,0.112-2.141,0.18
	c-1.447,0.149-2.895,0.317-4.338,0.465c-0.742,0.072-1.19,0.522-1.381,1.16c-0.204,0.695,0.508,0.613,0.866,0.82
	c0.086,0.052,0.16,0.136,0.25,0.174c0.962,0.417,1.887,0.97,2.891,1.189c1.365,0.31,2.785,0.421,4.185,0.494
	c1.373,0.065,2.765,0.076,4.129-0.063c2.052-0.205,4.082-0.69,6.133-0.823c2.066-0.142,4.036-0.626,5.953-1.284
	c1.552-0.521,3.043-1.313,4.46-2.156c1.567-0.932,3.022-2.051,4.515-3.11c0.574-0.402,1.104-0.869,1.659-1.307
	c0.939-0.729,2.048-1.29,2.511-2.513c0.066-0.194,0.299-0.34,0.478-0.469c0.515-0.381,1.088-0.694,1.559-1.121
	c0.425-0.388,0.769-0.872,1.104-1.343c0.265-0.365,0.418-0.813,0.709-1.142c0.544-0.611,1.261-1.088,1.708-1.757
	c0.672-0.979,1.16-2.089,1.746-3.132c0.376-0.66,0.847-1.276,1.186-1.962c0.604-1.234,1.201-2.474,1.697-3.748
	c0.646-1.676,1.316-3.354,1.727-5.093c0.292-1.22,0.135-2.556,0.214-3.826c0.114-1.788-0.239-3.515-0.504-5.256
	c-0.15-1.004-0.139-2.033-0.082-3.044c0.014-0.254,0.447-0.635,0.738-0.687c1.433-0.241,2.67,0.22,2.79,2.083
	c0.015,0.229,0.097,0.457,0.139,0.678c0.268,1.458,0.588,2.908,0.786,4.371c0.231,1.715,0.38,3.442,0.515,5.174
	c0.116,1.45,0.217,2.912,0.209,4.372c-0.011,1.201-0.201,2.398-0.31,3.599c-0.079,0.883-0.079,1.787-0.272,2.645
	c-0.261,1.167-0.627,2.313-1.032,3.436c-0.475,1.298-0.959,2.611-1.594,3.842c-0.422,0.813-1.096,1.503-1.663,2.237
	c-0.739,0.956-1.478,1.903-2.238,2.836c-0.238,0.298-0.597,0.499-0.806,0.813c-0.851,1.242-1.955,2.248-3.145,3.125
	c-1.052,0.775-1.965,1.604-2.443,2.823c-0.276,0.709-0.533,1.428-0.683,2.168c-0.052,0.239,0.19,0.686,0.426,0.82
	c0.306,0.179,0.749,0.231,1.111,0.187c1.262-0.172,2.458-0.402,3.428-1.447c0.799-0.854,1.902-1.419,2.82-2.187
	c1.246-1.044,2.477-2.121,3.655-3.252c1.47-1.395,2.912-2.832,4.305-4.318c0.925-0.986,1.786-2.041,2.58-3.134
	c0.813-1.119,1.553-2.297,2.258-3.498c1.313-2.229,2.641-4.455,3.838-6.744c0.66-1.258,1.06-2.648,1.592-3.978
	c0.557-1.379,1.239-2.707,1.351-4.237c0.023-0.313,0.152-0.687,0.362-0.905c0.653-0.698,0.843-1.564,0.951-2.437
	c0.164-1.365,0.149-2.76,0.399-4.106c0.395-2.126,1.2-4.186,0.851-6.407c-0.019-0.123,0.026-0.258,0.026-0.386
	c0.044-2.871,0.257-5.751,0.077-8.608c-0.193-2.958-0.611-5.919-1.544-8.769c-0.146-0.436-0.283-0.884-0.328-1.339
	c-0.038-0.329,0.082-0.679,0.131-1.015c0.086-0.007,0.171-0.007,0.257-0.015c0.134,0.261,0.246,0.54,0.403,0.787
	c0.798,1.231,0.724,2.764,1.495,4.04c0.534,0.88,0.638,2.021,0.955,3.036c0.139,0.44,0.205,1.111,0.504,1.245
	c0.892,0.407,0.761,1.209,0.865,1.865c0.361,2.208,0.627,4.436,0.94,6.654c0.021,0.142,0.156,0.265,0.197,0.41
	c0.231,0.852,0.635,1.705,0.635,2.56c0.004,1.774-0.221,3.55-0.333,5.317c-0.011,0.225,0.104,0.448,0.153,0.672
	c0.063,0.271,0.153,0.546,0.164,0.82c0.067,1.554,0.19,3.104,0.138,4.647c-0.04,1.265,0.321,2.643-0.648,3.762
	c-0.071,0.082-0.06,0.25-0.06,0.373c-0.019,0.685,0.03,1.379-0.056,2.063c-0.116,0.936-0.243,1.887-0.541,2.779
	c-0.389,1.144-0.979,2.223-1.419,3.354c-0.193,0.497-0.306,1.041-0.335,1.568c-0.04,0.642-0.101,1.336,0.104,1.917
	c0.287,0.835,0.94,0.871,1.485,0.175c0.216-0.271,0.317-0.634,0.507-0.936c0.216-0.341,0.413-0.84,0.724-0.939
	c0.947-0.295,1.082-0.981,1.224-1.805c0.111-0.654,0.306-1.496,0.771-1.846c1.049-0.782,1.078-1.751,1.056-2.855
	c-0.007-0.549,0.004-1.194,0.276-1.626c0.843-1.321,1.369-2.757,1.82-4.23c0.074-0.238-0.098-0.736-0.299-0.851
	c-0.522-0.262-0.239-0.462-0.086-0.756c0.287-0.556,0.627-1.119,0.769-1.722c0.175-0.745,0.184-1.543,0.273-2.463
	c0.118,0.271,0.17,0.373,0.216,0.473c0.152-0.612,0.544-1.283,0.388-1.791c-0.187-0.597,0.066-0.962,0.209-1.416
	c0.052-0.196,0.115-0.397,0.127-0.599c0.104-2.979-0.18-5.956,0.646-8.929c0.405-1.484,0.048-3.204-0.076-4.809
	c-0.063-0.843-0.487-1.656-0.555-2.495c-0.123-1.618-0.008-3.245-0.619-4.815c-0.358-0.921-0.384-1.988-0.817-2.857
	c-0.414-0.824-0.563-1.63-0.578-2.503c-0.015-0.91-0.365-1.66-0.937-2.372c-0.384-0.48-0.783-1.089-0.839-1.67
	c-0.157-1.597-0.701-2.962-1.738-4.178c-0.619-0.731-1.089-1.585-1.67-2.35c-0.612-0.806-0.534-2-1.516-2.6
	c-0.163-0.101-0.156-0.466-0.223-0.713c-0.135-0.492-0.164-1.055-0.427-1.469c-0.346-0.544-0.876-0.962-1.319-1.44
	c-0.828-0.891-1.642-1.797-2.484-2.681c-1.186-1.247-2.35-2.526-3.61-3.689c-1.5-1.395-3.074-2.709-4.655-4.006
	c-1.066-0.881-2.261-1.619-3.298-2.537c-1.503-1.339-3.289-2.193-5.028-3.133c-0.954-0.521-1.946-1-2.962-1.395
	c-1.495-0.583-2.99-1.325-4.55-1.552c-1.977-0.284-3.76-1.097-5.647-1.582c-1.347-0.343-2.729-0.574-4.107-0.754
	c-0.622-0.078-1.248-0.111-1.883-0.134c-1.156,0.277-2.312,0.612-3.502,0.725c-2.316,0.208-4.648,0.156-6.964,0.395
	c-4.275,0.433-8.356,2.007-12.32,3.581c-2.059,0.813-4.107,1.66-6.192,2.406c-1.775,0.637-3.477,1.409-5.091,2.39
	c-3.32,2.022-6.26,4.625-8.811,7.553c-1.388,1.601-2.679,3.287-3.835,5.07c-0.749,1.16-1.693,2.558-2.1,3.715
	c-0.698,2.007-1.071,4.159-1.31,6.266c-0.276,2.447-0.45,5.044,0.052,7.475c0.321,1.564,0.985,3.477,2.831,3.462
	c0.627-0.004,0.855,0.604,0.69,1.059c0.053,0.101,0.079,0.208,0.079,0.328c0,0.418-0.351,0.772-0.77,0.769
	c-0.343,0-0.712-0.074-0.973-0.313c-0.455-0.037-0.956-0.044-1.399-0.205c-1.429-0.519-2.573-1.466-3.438-2.701
	c-0.91-1.294-1.735-2.644-2.614-3.957c-0.105-0.153-0.307-0.313-0.478-0.336c-0.78-0.089-1.004-0.664-1.276-1.268
	c-0.193-0.436-0.556-0.797-0.806-1.216c-0.294-0.488-0.686-0.973-0.798-1.506c-0.231-1.097-0.336-2.224-0.426-3.346
	c-0.156-1.836-0.458-3.689-0.328-5.51c0.184-2.518-0.03-5.132,1.387-7.463c0.669-1.093,0.964-2.41,1.616-3.511
	c0.892-1.506,2.033-2.869,2.95-4.364c0.59-0.962,1.213-1.783,2.197-2.42c1.354-0.876,2.519-2.047,3.868-2.928
	c1.946-1.269,4.002-2.365,5.99-3.574c0.94-0.567,1.779-1.328,2.756-1.809c1.198-0.593,2.488-1.004,3.749-1.474
	c2.037-0.761,4.073-1.514,6.121-2.246c0.574-0.209,1.172-0.432,1.772-0.492c3.047-0.291,6.102-0.537,9.152-0.799
	c0.586-0.052,1.187-0.193,1.754-0.126c3.282,0.396,6.591-0.09,9.885,0.521c2.111,0.396,4.342,0.072,6.505,0.255
	c1.618,0.141,3.253,0.448,4.804,0.917c1.679,0.507,3.361,0.917,5.096,1.029c1.2,0.075,2.17,0.47,2.991,1.339
	c0.243,0.257,0.657,0.489,0.989,0.489c1.42,0,2.645,0.593,3.897,1.138c0.787,0.342,1.604,0.607,2.416,0.888
	c0.545,0.183,1.098,0.354,1.66,0.474c0.721,0.145,1.601,0.014,2.152,0.387c1.119,0.753,2.63,0.467,3.589,1.508
	c0.022,0.03,0.104-0.004,0.149,0.011c0.544,0.194,1.081,0.399,1.63,0.582c0.786,0.262,1.577,0.522,2.376,0.75
	c0.392,0.105,0.805,0.127,1.201,0.209c0.619,0.126,1.23,0.299,1.857,0.411c0.753,0.126,1.57,0.074,2.257,0.354
	c0.782,0.324,1.436,0.951,2.178,1.398c0.824,0.497,1.668,0.966,2.532,1.392c0.377,0.186,0.829,0.223,1.239,0.35
	c0.529,0.161,1.051,0.344,1.582,0.519c0.26,0.086,0.533,0.157,0.79,0.262c1.35,0.54,2.693,1.119,4.058,1.625
	c1.238,0.463,2.515,0.821,3.753,1.276c0.97,0.358,1.917,0.791,2.872,1.187c0.447,0.19,0.876,0.466,1.339,0.543
	c0.72,0.127,1.234,0.426,1.466,1.116c0.358-0.053,0.687-0.168,1.008-0.146c1.249,0.101,2.499,0.209,3.736,0.392
	c0.33,0.048,0.597,0.489,0.93,0.541c1.175,0.19,2.473-0.03,3.305,1.142c0.021,0.033,0.098,0.03,0.146,0.044
	c0.761,0.239,1.518,0.474,2.275,0.716c0.09,0.03,0.171,0.108,0.253,0.161c0.684,0.411,1.336,0.876,2.049,1.212
	c1.055,0.507,2.155,0.925,3.241,1.365c0.343,0.141,0.701,0.306,1.06,0.344c1.351,0.148,2.707,0.217,4.054,0.384
	c1.086,0.138,2.16,0.385,3.237,0.586c0.303,0.056,0.616,0.079,0.892,0.187c0.937,0.373,1.862,0.787,2.791,1.178
	c1.61,0.679,3.237,1.328,4.837,2.041c1.652,0.731,3.287,1.511,4.92,2.287c1.728,0.817,3.671,1.018,5.354,2.014
	c1.018,0.604,2.301,0.507,3.435,1.037c0.837,0.392,1.943,0.403,2.888,0.821c0.454,0.197,1.036,0.12,1.47,0.347
	c1.044,0.548,2.125,0.809,3.297,0.795c0.299,0,0.626,0.148,0.892,0.305c0.376,0.22,0.675,0.604,1.07,0.761
	c1.447,0.582,3.014,0.884,4.274,1.895c0.094,0.075,0.234,0.101,0.358,0.127c0.724,0.138,1.462,0.201,2.156,0.425
	c0.783,0.254,1.521,0.649,2.282,0.973c0.888,0.377,1.768,1.003,2.678,1.049c1.724,0.088,2.947,1.104,4.085,2.062
	c0.97,0.818,1.966,1.399,3.113,1.794c0.674,0.224,1.457,0.217,2.037,0.564c1.552,0.928,3.212,1.125,4.954,1.074
	c1.026-0.033,2.044-0.041,3.004,0.466c0.294,0.16,0.696,0.097,1.046,0.152c1.386,0.224,2.769,0.444,4.149,0.69
	c0.916,0.172,1.835,0.381,2.749,0.582c0.637,0.138,1.294,0.23,1.897,0.463c1.687,0.641,3.31,1.461,5.196,1.432
	c0.43-0.007,0.869,0.351,1.298,0.556c0.22,0.101,0.463,0.369,0.642,0.332c1.614-0.362,2.95,0.478,4.369,0.955
	c0.409,0.134,1.006,0.134,1.196,0.418c0.549,0.82,1.415,0.791,2.182,1.029c0.848,0.262,1.727,0.425,2.563,0.731
	c0.609,0.216,1.138,0.731,1.756,0.864c1.173,0.259,2.099,1.224,3.374,1.143c0.088-0.007,0.22,0.133,0.279,0.242
	c0.34,0.593,0.906,0.638,1.503,0.741c0.761,0.135,1.503,0.411,2.223,0.695c0.538,0.208,0.999,0.651,1.544,0.775
	c1.087,0.254,2.204,0.354,3.309,0.511c0.5,0.071,1,0.122,1.5,0.19c0.816,0.115,1.638,0.231,2.45,0.365
	c0.723,0.119,1.459,0.217,2.164,0.41c0.896,0.246,1.761,0.63,2.659,0.877c0.634,0.175,1.325,0.153,1.96,0.331
	c1.081,0.307,2.137,0.703,3.206,1.064c0.386,0.13,0.764,0.278,1.155,0.383c0.404,0.105,0.817,0.188,1.232,0.239
	c0.627,0.079,1.276,0.074,1.896,0.205c0.575,0.118,1.118,0.377,1.686,0.549c0.217,0.071,0.478,0.029,0.668,0.133
	c1.413,0.766,2.953,0.904,4.509,1.008c0.454,0.029,0.902,0.149,1.351,0.255c0.604,0.14,1.194,0.384,1.805,0.446
	c1.27,0.128,2.575,0.03,3.82,0.271c2.252,0.445,4.46,1.088,6.796,1.004c0.553-0.022,1.127,0.24,1.679,0.396
	c0.306,0.082,0.589,0.262,0.895,0.335c1.388,0.34,2.784,0.69,4.185,0.962c0.836,0.172,1.698,0.217,2.549,0.314
	c0.178,0.022,0.422-0.038,0.52,0.061c0.626,0.64,1.461,0.528,2.222,0.676c1.53,0.307,3.036,0.748,4.574,0.934
	c1.338,0.154,2.714,0.008,4.07,0.046c0.557,0.014,1.188,0.019,1.649,0.275c1.509,0.857,3.131,1.098,4.813,1.09
	c1.196-0.004,2.395-0.131,3.597-0.137c0.896-0.005,1.782,0.145,2.674,0.154c2.129,0.02,4.255-0.048,6.39,0.004
	c1.089,0.034,2.17,0.27,3.253,0.396c0.932,0.118,1.862,0.306,2.789,0.29c3.741-0.036,7.482-0.148,11.22-0.217
	c1.462-0.024,2.932,0.075,4.391-0.021c1.959-0.127,3.902-0.484,5.856-0.597c2.912-0.165,5.823-0.201,8.739-0.313
	c0.395-0.013,0.917-0.017,1.165-0.255c0.626-0.614,1.401-0.652,2.14-0.665c3.126-0.036,6.268,0.03,9.393-0.036
	c1.409-0.037,2.819-0.307,4.224-0.496c1.267-0.168,2.513-0.399,3.773-0.557c0.603-0.066,1.245,0.082,1.655-0.563
	c0.082-0.138,0.373-0.19,0.56-0.186c1.604,0.048,3.044-0.608,4.521-1.094c0.313-0.101,0.627-0.186,0.932-0.299
	c0.53-0.2,1.051-0.421,1.574-0.621c0.426-0.168,0.993-0.198,1.269-0.505c0.522-0.586,1.097-0.798,1.805-0.807
	c0.254-0.242,0.562-0.371,0.828-0.563c0.247-0.16,0.629-0.376,0.629-0.574C432.55,82.591,432.474,81.479,432.361,80.375z
	 M55.656,46.388c0.652-1.604,1.253-3.439,2.338-4.804c1.09-1.366,2.642-2.283,3.895-3.492c1.343-1.295,2.432-2.895,4.189-3.685
	c3.86-1.73,8.243-2.198,11.634-4.917c0.63-0.5,1.48,0.135,1.336,0.724c1.252-0.44,2.513-0.87,3.773-1.275
	c1.116-0.358,2.269-0.706,3.544-0.59c0.962,0.082,1.963-0.425,2.962-0.537c0.922-0.105,1.88-0.157,2.794-0.015
	c1.525,0.239,3.055,0.544,4.523,1.008c1.605,0.5,3.168,1.163,4.7,1.864c0.52,0.239,0.858,0.843,1.339,1.194
	c1.071,0.791,2.224,1.469,3.257,2.297c1.13,0.911,2.134,1.985,3.253,2.91c0.97,0.805,2.029,1.503,3.047,2.253
	c0.313,0.234,0.619,0.484,0.906,0.753c0.202,0.187,0.366,0.425,0.545,0.641c1.008,1.206,2.048,2.384,2.999,3.634
	c0.906,1.179,1.716,2.432,2.566,3.655c0.056,0.082,0.127,0.209,0.193,0.212c0.967,0.034,1.209,0.825,1.59,1.477
	c0.179,0.31,0.396,0.611,0.663,0.844c1.216,1.066,1.836,2.438,2.245,3.976c0.263,0.973,0.769,1.877,1.082,2.842
	c0.333,1.033,0.582,2.092,0.843,3.151c0.221,0.907,0.407,1.824,0.598,2.738c0.07,0.321,0.164,0.646,0.164,0.971
	c0.022,1.588-0.016,3.177,0.022,4.774c0.015,0.626,0.209,1.253,0.224,1.879c0.019,0.672-0.082,1.344-0.123,2.015
	c-0.049,0.814-0.086,1.631-0.139,2.447c-0.014,0.197-0.011,0.459-0.126,0.589c-0.783,0.854-0.746,1.902-0.597,2.902
	c0.235,1.581-0.444,2.857-1.089,4.185c-0.329,0.663-0.552,1.372-0.859,2.171c-0.708-0.671-1.126-1.156-1.043-2.044
	c0.089-0.947-0.157-1.887-0.992-2.54c-0.135-0.104-0.251-0.272-0.292-0.437c-0.306-1.152-0.545-2.327-0.887-3.465
	c-0.202-0.675-0.553-1.302-0.858-1.943c-0.377-0.775-0.761-1.552-1.171-2.309c-0.291-0.541-0.612-1.06-0.948-1.571
	c-0.652-0.999-1.275-2.028-2.006-2.968c-0.522-0.664-1.176-1.246-1.825-1.79c-0.764-0.65-1.017-1.474-1.129-2.417
	c-0.143-1.268-0.194-2.582-0.583-3.775c-0.626-1.954-1.495-3.831-2.259-5.74c-0.735-1.824-1.926-3.354-3.381-4.6
	c-1.044-0.891-2.305-1.581-3.559-2.17c-0.357-0.168-0.72-0.314-1.089-0.44c-0.089,0.38-0.439,0.708-0.933,0.597
	c-6.207-1.462-12.503,0.433-18.344,2.477c-3.025,1.052-6.023,2.201-9.102,3.1c-1.424,0.414-2.864,0.787-4.326,1.041
	c-1.642,0.291-3.224,0.817-4.857,1.156c-2.137,0.451-4.416,0.593-6.408-0.477c-1.469-0.791-2.872-2.104-3.103-3.842
	C54.638,49.409,55.053,47.872,55.656,46.388z M37.278,74.81c0.339,0.134,0.701,0.336,1.052,0.32c1.16-0.032,2.134,0.251,3.003,1.099
	c0.316,0.313,0.973,0.319,1.48,0.387c0.653,0.082,1.313,0.09,1.97,0.112c0.533,0.022,1.067,0.044,1.597,0.026
	c0.679-0.026,1.361-0.075,2.039-0.146c1.143-0.115,2.317-0.123,3.414-0.417c2.223-0.598,4.386-1.402,6.602-2.029
	c1.612-0.459,3.089-1.171,4.521-2.015c1.16-0.679,2.342-1.327,3.518-1.984c1.237-0.694,1.473-2.178,0.466-3.155
	c0.193-0.06,0.384-0.12,0.574-0.179c-2.421-0.284-4.793-1.328-6.736-2.708c-0.806-0.574-0.037-1.909,0.775-1.335
	c2.902,2.06,6.677,3.313,10.15,2.06c3.003-1.089,5.804-3.648,9.171-3.394c0.382,0.03,0.612,0.275,0.703,0.566
	c0.014-0.007,0.036-0.015,0.056-0.022c0.212-0.067,0.47-0.157,0.66-0.094c1.379,0.437,2.774,0.832,4.099,1.407
	c0.854,0.365,1.615,0.97,2.368,1.537c1.201,0.902,2.373,1.843,3.528,2.801c1.921,1.593,3.61,3.409,4.928,5.524
	c0.758,1.208,1.339,2.528,1.966,3.813c0.094,0.193,0.061,0.529-0.045,0.723c-0.187,0.324-0.384,0.642-0.593,0.954
	c0.045,0.255,0.085,0.508,0.167,0.755c0.12,0.401-0.145,0.843-0.536,0.946c-0.254,0.071-0.5,0.004-0.687-0.142
	c-0.358,0.479-0.716,0.956-1.067,1.436c0.053,0.221,0,0.464-0.22,0.669c-0.316,0.298-0.623,0.603-0.929,0.909
	c-0.914,1.276-1.828,2.545-2.771,3.798c-2.145,2.835-4.432,5.637-7.206,7.893c-1.328,1.076-2.741,2.066-4.293,2.813
	c-1.66,0.794-3.357,1.252-5.152,1.651c-1.454,0.317-2.924,0.634-4.4,0.929c-0.713,0.388-1.444,0.731-2.227,0.984
	c-0.438,0.146-0.759-0.088-0.881-0.421c-6.64,1.104-13.405,1.45-19.858-0.811c-0.604-0.209-0.643-0.921-0.336-1.288
	c-1.231-0.471-2.432-1.002-3.461-1.915c-0.743-0.66-1.687-1.101-2.537-1.642c-0.108-0.07-0.253-0.122-0.306-0.233
	c-0.782-1.627-2.268-2.497-3.662-3.485c-0.575-0.402-0.975-1.051-1.504-1.531c-1.029-0.937-2.07-1.871-3.151-2.743
	c-0.925-0.734-1.813-1.454-2.336-2.581c-0.253-0.545-0.745-1.104-1.278-1.38c-1.034-0.529-1.541-1.455-2.107-2.35
	c-0.873-1.381-1.716-2.783-2.566-4.178c-0.067-0.105-0.149-0.23-0.157-0.351c-0.112-1.656-1.242-2.864-1.88-4.29
	c-0.179-0.406-0.254-0.857-0.343-1.298c-0.202-1.049-0.317-2.118-0.604-3.144c-0.176-0.624-0.857-1.067-0.686-1.854
	c0.015-0.082-0.276-0.235-0.426-0.351c-0.205-0.164-0.62-0.403-0.589-0.466c0.145-0.362,0.335-0.765,0.634-0.973
	c0.2-0.135,0.752-0.079,0.903,0.101c0.604,0.716,1.186,1.473,1.633,2.286c0.381,0.69,0.791,1.246,1.477,1.693
	c0.701,0.463,1.239,1.186,1.854,1.783c0.638,0.623,1.316,1.209,1.914,1.865c0.835,0.926,2.028,1.145,3.059,1.693
	c1.126,0.597,2.305,0.634,3.535,0.679C36.141,74.135,36.7,74.578,37.278,74.81z M443.44,106.889
	c-0.97,1.711-2.679,2.073-4.408,2.388c-0.411,0.073-0.852,0.097-1.194,0.289c-1.329,0.755-2.798,0.985-4.268,1.269
	c-1.373,0.262-2.707,0.746-4.081,0.978c-1.724,0.295-3.477,0.44-5.214,0.652c-2.559,0.321-5.162-0.1-7.714,0.56
	c-0.865,0.221-1.827,0-2.753,0.05c-2.828,0.137-5.662,0.42-8.49,0.446c-4.661,0.037-9.336-0.061-13.998-0.148
	c-2.683-0.06-5.359-0.209-8.038-0.351c-1.865-0.104-3.723-0.312-5.587-0.385c-1.071-0.036-2.149,0.145-3.22,0.138
	c-1.548-0.007-3.103-0.084-4.65-0.143c-1.25-0.043-2.504-0.106-3.76-0.167c-2.851-0.138-5.711-0.241-8.562-0.442
	c-2.517-0.177-5.03-0.447-7.538-0.702c-0.291-0.031-0.561-0.24-0.855-0.283c-0.74-0.104-1.495-0.164-2.243-0.254
	c-1.839-0.209-3.689-0.433-5.539-0.642c-1.978-0.216-3.962-0.426-5.939-0.642c-0.102-0.007-0.216,0.035-0.306-0.004
	c-2.028-0.831-4.176-0.533-6.281-0.622c-3.223-0.135-6.452-0.165-9.668-0.411c-1.996-0.157-4.037-0.402-5.925-1.016
	c-1.569-0.521-3.058-0.223-4.58-0.297c-1.634-0.067-3.27-0.121-4.901-0.25c-1.267-0.095-2.536-0.234-3.789-0.469
	c-0.977-0.185-1.924-0.55-2.874-0.975c1.091-0.083,2.185-0.166,3.276-0.247l0.022-0.147c-0.148-0.046-0.29-0.113-0.439-0.124
	c-1.966-0.101-3.933-0.242-5.9-0.285c-2.228-0.052-4.455,0.02-6.685-0.036c-1.134-0.025-2.253-0.075-3.389-0.486
	c-1.069-0.391-2.312-0.323-3.475-0.421c-0.123-0.007-0.299,0.217-0.393,0.369c-0.138,0.237-0.221,0.501-0.248,0.561
	c-1.694-0.136-3.268-0.198-4.819-0.4c-1.441-0.185-2.873-0.47-4.282-0.805c-1.762-0.419-3.477-1.052-5.245-1.372
	c-1.515-0.27-3.081-0.172-4.619-0.336c-0.737-0.075-1.442-0.452-2.181-0.538c-1.565-0.186-3.063-0.863-4.695-0.588
	c-0.878,0.148-1.779,0.134-2.656,0.267c-1.872,0.307-3.543-0.588-5.326-0.827c-0.508-0.06-1.008-0.242-1.511-0.245
	c-6.129-0.066-12.261-0.104-18.39-0.172c-0.72-0.012-1.44-0.176-2.159-0.262c-0.787-0.1-1.575-0.283-2.362-0.287
	c-7.467-0.034-14.935-0.034-22.405-0.063c-1.373-0.006-2.746-0.118-4.118-0.13c-0.765-0.013-1.537,0.049-2.298,0.151
	c-0.769,0.098-1.529,0.341-2.298,0.402c-1.245,0.105-2.498,0.188-3.741,0.141c-1.04-0.038-2.077-0.369-3.117-0.386
	c-5.823-0.089-11.649-0.157-17.468-0.137c-1.149,0.004-2.283,0.578-3.432,0.622c-1.903,0.082-3.585,0.892-5.379,1.321
	c-0.62,0.148-1.231,0.35-1.824,0.59c-0.258,0.104-0.455,0.361-0.667,0.559c-0.135,0.123-0.228,0.287-0.374,0.384
	c-0.891,0.615-1.783,1.235-2.7,1.81c-0.276,0.172-0.638,0.216-0.958,0.319c-0.112-0.387-0.37-0.798-0.3-1.146
	c0.09-0.479,0.34-0.985,0.676-1.344c0.858-0.94,1.978-1.675,2.664-2.708c0.696-1.053,1.722-1.649,2.558-2.481
	c0.221-0.22,0.575-0.287,0.851-0.458c0.254-0.149,0.466-0.365,0.724-0.511c0.328-0.188,0.664-0.385,1.025-0.471
	c0.884-0.22,1.795-0.313,2.668-0.563c1.093-0.313,2.133-0.82,3.237-1.076c0.926-0.207,1.902-0.23,2.857-0.245
	c1.987-0.021,3.976,0.008,5.961,0.019c1.249,0.004,2.498,0.02,3.752-0.011c0.601-0.012,1.201-0.101,1.797-0.149
	c0.784-0.063,1.571-0.097,2.351-0.176c2.518-0.26,5.036-0.521,7.551-0.794c0.901-0.104,1.804-0.247,2.789-0.381
	c0-0.041,0-0.089,0-0.125c1.7-0.038,3.402-0.023,5.099,0.007c0.108,0.111,0.287,0.185,0.552,0.229
	c1.803,0.356,3.589,0.3,5.397,0.108c0.571-0.062,1.164,0.076,1.865,0.124c-0.06-0.064-0.112-0.128-0.163-0.193
	c2.617,0.082,5.232,0.23,7.848,0.351c4.028,0.19,8.045,0.216,12.074,0.168c3.956-0.05,7.914-0.128,11.872-0.123
	c0.041,0,0.083,0,0.126,0c0.829,0.2,1.664,0.395,2.507,0.556c0.515,0.101,1.03,0.167,1.553,0.233
	c-0.008,0.016-0.012,0.042-0.016,0.064c0.772,0.213,1.535,0.56,2.321,0.607c2.326,0.119,4.654,0.128,6.984,0.176
	c3.438,0.063,6.868,0.13,10.304,0.184c0.712,0.002,1.428-0.105,2.145-0.111c1.458-0.009,2.916-0.009,4.375,0.018
	c0.868,0.01,1.742,0.06,2.606,0.122c2.331,0.173,4.663,0.385,6.991,0.546c1.835,0.125,3.686,0.142,5.513,0.335
	c0.906,0.097,1.813,0.101,2.674,0.799c0.724,0.592,1.87,0.798,2.857,0.895c1.34,0.135,2.705-0.021,4.063-0.004
	c1.319,0.022,2.67-0.018,3.965,0.21c3.591,0.637,7.18,1.033,10.838,0.943c2.399-0.06,4.805,0.09,7.202,0.199
	c0.553,0.032,1.09,0.337,1.642,0.423c1.403,0.224,2.805,0.467,4.215,0.571c2.877,0.201,5.774,0.231,8.647,0.511
	c1.651,0.152,3.268,0.646,5.05,1.019c-0.274,0.175-0.395,0.254-0.716,0.463c1.946,0.096,3.673,0.156,5.4,0.275
	c1.522,0.112,3.044,0.216,4.543,0.446c1.471,0.219,2.903,0.643,4.357,0.9c0.492,0.085,1.028-0.077,1.705-0.149
	c0.541,0.496-0.061,0.653-0.552,1.007c0.346,0.086,0.682,0.22,1.033,0.258c1.397,0.137,2.797,0.262,4.194,0.389
	c0.105,0.006,0.229,0.01,0.296,0.074c1.387,1.127,3.067,0.719,4.625,0.791c3.048,0.14,6.103,0.134,9.153,0.189
	c0.581,0.011,1.163,0.072,1.745,0.049c0.3-0.015,0.594-0.262,0.881-0.247c1.499,0.113,2.999,0.271,4.491,0.422
	c3.189,0.34,6.325,1.086,9.575,0.981c2.83-0.086,5.681,0.044,8.512,0.21c1.582,0.089,3.145,0.498,4.729,0.662
	c1.803,0.194,3.614,0.366,5.419,0.402c6.671,0.116,13.338,0.196,20.001,0.224c2.134,0.008,4.282-0.104,6.4-0.333
	c1.82-0.188,3.611-0.636,5.417-0.951c0.618-0.109,1.268-0.102,1.881-0.26c1.476-0.371,2.922-0.813,4.384-1.209
	c0.292-0.073,0.59-0.14,0.89-0.137c0.446,0.012,0.917,0.033,1.342,0.145c0.321,0.076,0.679,0.239,0.85,0.485
	C443.737,106.242,443.574,106.648,443.44,106.889z"/>
<g>
	<path d="M160.964,53.488l13.35,33.319l13.35-33.319h6.983v40.836h-5.385V78.422l0.505-17.165l-13.406,33.067h-4.123L158.86,61.341
		l0.533,17.081v15.902h-5.385V53.488H160.964z"/>
	<path d="M217.913,94.324c-0.265-0.529-0.48-1.472-0.645-2.828c-2.134,2.217-4.682,3.324-7.642,3.324
		c-2.647,0-4.818-0.748-6.514-2.245c-1.695-1.497-2.543-3.396-2.543-5.694c0-2.796,1.063-4.967,3.188-6.514
		c2.125-1.547,5.115-2.32,8.969-2.32h4.466v-2.108c0-1.604-0.48-2.883-1.439-3.834c-0.959-0.951-2.374-1.427-4.243-1.427
		c-1.637,0-3.011,0.414-4.119,1.241c-1.108,0.827-1.663,1.827-1.663,3.002h-4.615c0-1.34,0.475-2.634,1.427-3.883
		c0.951-1.249,2.241-2.237,3.871-2.966c1.629-0.728,3.42-1.092,5.372-1.092c3.093,0,5.517,0.773,7.27,2.32s2.663,3.677,2.729,6.39
		v12.356c0,2.465,0.314,4.425,0.943,5.88v0.397H217.913z M210.295,90.826c1.439,0,2.804-0.373,4.094-1.117s2.225-1.712,2.804-2.903
		v-5.508h-3.598c-5.624,0-8.436,1.646-8.436,4.938c0,1.439,0.479,2.564,1.439,3.375C207.557,90.421,208.79,90.826,210.295,90.826z"
		/>
	<path d="M231.482,91.137h14.008v3.188h-17.926V64.766h3.918V91.137z"/>
	<path d="M251.099,91.846h10.895v2.479h-13.942v-22.99h3.048V91.846z"/>
</g>
<path fill-rule="evenodd" clip-rule="evenodd" d="M28.271,107.26c0.504-0.521,0.98-1.021,1.466-1.514
	c1.253-1.268,2.499-2.55,3.782-3.797c0.59-0.577,1.32-1.015,1.888-1.611c1.61-1.701,4.088-3.902,5.669-5.625
	c0.104-0.112,0.229-0.209,0.34-0.306c1.313,0.806,2.607,1.61,3.905,2.409c0.996,0.605,1.958,1.302,3.014,1.775
	c1.38,0.619,2.864,0.999,4.26,1.574c1.921,0.798,3.958,0.623,5.953,0.761c1.462,0.111,2.954-0.186,4.432-0.298
	c0.771-0.06,1.56-0.048,2.319-0.187c1.72-0.307,3.455-0.597,5.134-1.056c1.901-0.523,3.781-1.157,5.616-1.875
	c1.679-0.661,2.372-1.023,3.991-1.813c2.775-1.366,4.786-2.735,7.292-4.559c1.015-0.746,1.921-1.477,2.854-2.327
	c0.754-0.694,1.508-1.41,2.193-2.172c0.906-1.014,1.604-2.08,2.458-3.144c0.869-1.078,1.693-2.205,2.582-3.271
	c0.861-1.033,1.659-2.059,2.077-3.395c0.406-1.294,1.152-2.479,1.582-3.771c0.339-1.015,0.5-2.107,0.611-3.175
	c0.156-1.514,0.097-3.028-0.225-4.536c-0.364-1.715-0.939-3.349-2.103-4.673c-1.016-1.152-2.396-1.697-3.892-2.055
	c-1.688-0.407-3.304-0.052-4.882,0.365c-3.372,0.903-5.797,1.88-9.116,2.94c-3.122,0.992-6.191,2.144-9.288,3.2
	c-1.611,0.544-3.26,0.985-4.864,1.551c-2.364,0.829-4.804,1.313-7.262,1.762c-2.07,0.38-4.155,0.655-6.244,0.469
	c-1.794-0.156-3.495-0.671-4.898-1.977c-1.245-1.163-2.013-2.536-2.473-4.155c-1.2-4.255-0.652-8.414,0.579-12.559
	c0.962-3.23,2.477-6.203,4.449-8.893c1.31-1.779,2.816-3.458,4.45-4.942c1.85-1.674,3.883-3.171,5.946-4.588
	c3.401-2.335,7.102-4.125,11.007-5.461c2.838-0.969,5.674-1.988,8.583-2.674c2.477-0.585,5.058-0.72,7.594-1.07
	c0.992-0.135,1.988-0.504,2.962-0.441c3.364,0.216,6.561,0.731,9.914,1.037c0.352,0.033,0.851,0.391,1.351,0.455
	c-0.955,2.197-1.854,4.581-2.753,6.646c-1.238-0.47-2.409-1.032-3.637-1.342c-1.563-0.399-3.188-0.544-4.77-0.887
	c-1.758-0.388-3.402,0.306-5.104,0.396c-3.958,0.216-7.476,1.656-11.138,2.872c-2.048,0.675-3.831,1.537-5.819,2.402
	c-0.939,0.41-1.947,0.723-2.805,1.268c-1.634,1.03-3.245,1.965-4.756,3.17c-1.242,0.993-2.238,1.977-3.312,3.156
	c-1.191,1.313-1.369,2.268-2.414,4.617c-0.128,0.28-0.187,0.598-0.343,0.862c-0.426,1.713-0.806,2.421-0.739,3.682
	c0.049,0.888-0.115,1.939,0.646,2.559c0.873,0.708,1.704,1.35,2.742,1.765c1.581,0.634,3.252,0.525,4.894,0.1
	c0.373-0.096,0.769-0.104,1.145-0.182c2.925-0.568,5.733-1.493,8.505-2.585c1.82-0.724,3.749-1.179,5.621-1.76
	c1.876-0.579,3.753-1.149,5.616-1.746c4.556-1.443,9.154-2.443,13.996-2.197c3.305,0.168,6.147,1.258,8.526,3.477
	c2.238,2.085,3.565,4.764,4.401,7.681c0.493,1.73,0.996,3.458,1.381,5.21c0.253,1.176,0.275,2.399,0.451,3.597
	c0.399,2.76-0.094,5.49-0.347,8.217c-0.135,1.484-0.702,2.932-1.104,4.387c-0.184,0.667-0.403,1.335-0.68,1.97
	c-0.731,1.678-1.417,3.376-2.268,4.985c-0.911,1.743-1.896,3.465-3.018,5.077c-0.93,1.335-2.045,2.551-3.183,3.708
	c-1.723,1.753-3.521,3.431-5.311,5.124c-0.94,0.884-1.873,1.783-2.898,2.566c-1.362,1.038-2.794,1.981-4.219,2.933
	c-1.344,0.888-2.686,1.79-4.084,2.588c-1.556,0.896-3.175,1.663-4.757,2.495c-0.638,0.333-1.253,0.706-1.902,1.023
	c-0.454,0.224-0.954,0.354-1.425,0.563c-0.511,0.228-0.991,0.526-1.514,0.731c-0.996,0.403-2.059,0.656-3.007,1.149
	c-0.914,0.461-1.977,0.515-2.808,0.943c-1.292,0.66-2.716,0.727-4.003,1.295c-0.358,0.147-0.791,0.126-1.187,0.186
	c-0.306,0.038-0.693-0.029-0.895,0.134c-0.694,0.561-1.53,0.314-2.283,0.5c-0.784,0.202-1.604,0.112-2.335,0.271
	c-0.806,0.169-1.581,0.192-2.376,0.236c-0.149,0.007-0.385,0.012-0.426,0.097c-0.409,0.807-1.148,0.522-1.778,0.561
	c-5.268,0.275-10.229-1.061-15.018-3.042c-1.652-0.682-3.126-1.81-4.663-2.763c-2.531-1.589-5.051-3.208-7.571-4.812
	C28.476,107.474,28.409,107.396,28.271,107.26z"/>
</svg>
